HIERARCHY
ROOT Hips
{
	OFFSET 0.000000 0.000000 0.000000
	CHANNELS 6 Xposition Yposition Zposition Xrotation Yrotation Zrotation
	JOINT LeftUpLeg_virtual
	{
		OFFSET 0.000000 0.000000 0.000000
		CHANNELS 3 Xrotation Yrotation Zrotation
		JOINT LeftUpLeg
		{
			OFFSET 11.394100 -6.187798 -0.413800
			CHANNELS 3 Xrotation Yrotation Zrotation
			JOINT LeftLeg
			{
				OFFSET 0.430247 -32.302673 3.732800
				CHANNELS 3 Xrotation Yrotation Zrotation
				JOINT LeftFoot
				{
					OFFSET -0.430247 -48.264931 -6.423300
					CHANNELS 3 Xrotation Yrotation Zrotation
					JOINT LeftToeBase
					{
						OFFSET 4.230900 -16.068199 23.438400
						CHANNELS 3 Xrotation Yrotation Zrotation
						JOINT LeftToe_End
						{
							OFFSET 4.510700 0.695400 19.974600
							CHANNELS 3 Xrotation Yrotation Zrotation
							End Site
							{
								OFFSET 0 0 0
							}
						}
					}
				}
			}
		}
	}
	JOINT RightUpLeg_virtual
	{
		OFFSET 0.000000 0.000000 0.000000
		CHANNELS 3 Xrotation Yrotation Zrotation
		JOINT RightUpLeg
		{
			OFFSET -11.333700 -6.187798 -0.413800
			CHANNELS 3 Xrotation Yrotation Zrotation
			JOINT RightLeg
			{
				OFFSET -0.430392 -32.302628 3.733000
				CHANNELS 3 Xrotation Yrotation Zrotation
				JOINT RightFoot
				{
					OFFSET 0.430392 -48.264973 -6.423500
					CHANNELS 3 Xrotation Yrotation Zrotation
					JOINT RightToeBase
					{
						OFFSET -4.230900 -16.068199 23.438400
						CHANNELS 3 Xrotation Yrotation Zrotation
						JOINT RightToe_End
						{
							OFFSET -4.510700 0.695400 19.974600
							CHANNELS 3 Xrotation Yrotation Zrotation
							End Site
							{
								OFFSET 0 0 0
							}
						}
					}
				}
			}
		}
	}
	JOINT Spine_virtual
	{
		OFFSET 0.000000 0.000000 0.000000
		CHANNELS 3 Xrotation Yrotation Zrotation
		JOINT Spine
		{
			OFFSET -0.002400 12.777504 0.315300
			CHANNELS 3 Xrotation Yrotation Zrotation
			JOINT Spine1
			{
				OFFSET -0.002067 5.816869 0.032633
				CHANNELS 3 Xrotation Yrotation Zrotation
				JOINT Spine1_split
				{
					OFFSET -0.002067 5.816869 0.032633
					CHANNELS 3 Xrotation Yrotation Zrotation
					JOINT Spine2
					{
						OFFSET -0.002067 5.816869 0.032633
						CHANNELS 3 Xrotation Yrotation Zrotation
						JOINT Neck_virtual
						{
							OFFSET 0.000000 0.000000 0.000000
							CHANNELS 3 Xrotation Yrotation Zrotation
							JOINT Neck
							{
								OFFSET -0.003700 21.199493 -0.826900
								CHANNELS 3 Xrotation Yrotation Zrotation
								JOINT Head
								{
									OFFSET 0.000000 20.442200 4.834800
									CHANNELS 3 Xrotation Yrotation Zrotation
									JOINT HeadTop_End
									{
										OFFSET 0.000000 34.668396 4.968400
										CHANNELS 3 Xrotation Yrotation Zrotation
										End Site
										{
											OFFSET 0 0 0
										}
									}
								}
							}
						}
						JOINT LeftShoulder_virtual
						{
							OFFSET 0.000000 0.000000 0.000000
							CHANNELS 3 Xrotation Yrotation Zrotation
							JOINT LeftShoulder
							{
								OFFSET 3.288150 8.794197 -1.372250
								CHANNELS 3 Xrotation Yrotation Zrotation
								JOINT LeftShoulder_split
								{
									OFFSET 3.288150 8.794197 -1.372250
									CHANNELS 3 Xrotation Yrotation Zrotation
									JOINT LeftArm
									{
										OFFSET 11.953299 -2.279007 -0.146200
										CHANNELS 3 Xrotation Yrotation Zrotation
										JOINT LeftForeArm
										{
											OFFSET 18.448900 0.000000 0.000000
											CHANNELS 3 Xrotation Yrotation Zrotation
											JOINT LeftHand
											{
												OFFSET 29.527798 0.000000 0.000000
												CHANNELS 3 Xrotation Yrotation Zrotation
												End Site
												{
													OFFSET 0 0 0
												}
											}
										}
									}
								}
							}
						}
						JOINT RightShoulder_virtual
						{
							OFFSET 0.000000 0.000000 0.000000
							CHANNELS 3 Xrotation Yrotation Zrotation
							JOINT RightShoulder
							{
								OFFSET -3.249400 8.794197 -1.372250
								CHANNELS 3 Xrotation Yrotation Zrotation
								JOINT RightShoulder_split
								{
									OFFSET -3.249400 8.794197 -1.372250
									CHANNELS 3 Xrotation Yrotation Zrotation
									JOINT RightArm
									{
										OFFSET -11.953299 -2.279007 -0.146200
										CHANNELS 3 Xrotation Yrotation Zrotation
										JOINT RightForeArm
										{
											OFFSET -18.448900 0.000000 0.000000
											CHANNELS 3 Xrotation Yrotation Zrotation
											JOINT RightHand
											{
												OFFSET -29.527802 0.000000 0.000000
												CHANNELS 3 Xrotation Yrotation Zrotation
												End Site
												{
													OFFSET 0 0 0
												}
											}
										}
									}
								}
							}
						}
					}
				}
			}
		}
	}
}
MOTION
Frames: 6
Frame Time: 0.03333333
23.065321 90.159348 8.509003 0.000000 0.000000 0.000000 157.911542 -65.576530 164.868800 -51.331850 44.829690 47.549506 37.928529 -5.636863 -3.911127 2.000376 10.236381 -5.164137 2.753561 6.227501 -13.184131 0.000000 0.000000 0.000000 159.392860 -65.602594 167.584524 -48.864942 -17.614204 -29.850823 39.785118 -3.808726 -2.220413 -13.627283 -3.945203 12.106076 0.886309 3.622668 1.828435 0.000000 0.000000 0.000000 152.001953 -68.704682 158.414886 10.684997 -2.622551 -0.359185 5.321549 -3.079129 -2.760731 0.248875 -1.375205 0.962474 0.000000 0.000000 0.000000 -1.935688 -4.898637 -1.855563 4.531133 14.500973 -2.440604 -14.861529 11.216295 -3.200585 0.000000 0.000000 0.000000 -1.950950 -5.436292 -1.647665 -1.198851 -9.701958 -5.792625 0.086317 0.401457 0.958239 -24.443048 -14.586055 -47.470317 -14.523946 -28.148326 -14.762144 0.000000 0.000000 0.000000 -3.675224 -5.683157 -1.896811 -5.585170 18.825325 3.660761 0.660129 -3.212044 0.098704 -11.816959 -10.973361 60.688334 10.494573 37.643884 -2.121197 0.000000 0.000000 0.000000 
22.792002 89.964546 7.753498 0.000000 0.000000 0.000000 157.971989 -63.526811 165.072681 -56.338344 42.829965 50.774851 40.114988 -8.119168 -3.363572 5.787122 8.486991 -2.673529 2.432315 6.930206 -16.255808 0.000000 0.000000 0.000000 159.714152 -62.821129 168.089125 -50.930238 -16.887926 -29.915744 40.750247 -2.950127 -1.874286 -14.371415 -2.397964 12.130478 0.629955 4.090925 1.679937 0.000000 0.000000 0.000000 152.393104 -66.126032 159.003594 10.950105 -2.482699 -0.682693 4.656216 -2.136719 -2.882048 0.356991 -1.646743 0.819082 0.000000 0.000000 0.000000 -2.696410 -3.870361 -1.941159 3.838913 16.182279 -3.478274 -15.307219 12.767806 -3.217145 0.000000 0.000000 0.000000 -2.669713 -4.358049 -1.758821 -1.017406 -9.237296 -5.797258 0.106510 0.232113 0.589731 -24.785097 -16.062288 -47.569990 -15.685400 -30.664151 -14.970590 0.000000 0.000000 0.000000 -4.310202 -4.586990 -2.001541 -5.738523 18.725662 3.644256 0.797469 -3.152858 -0.214967 -11.431441 -11.119874 60.970175 12.655025 37.440119 -3.460419 0.000000 0.000000 0.000000 
22.350437 89.881241 7.155796 0.000000 0.000000 0.000000 158.091873 -61.851065 165.192865 -60.740982 40.831369 53.039031 41.788443 -10.663044 -2.533376 9.412218 6.700072 -0.139817 1.400096 7.083760 -17.750410 0.000000 0.000000 0.000000 159.887270 -60.392806 168.300164 -51.982316 -15.881223 -29.710121 41.733518 -2.170301 -1.613196 -15.763105 -1.145312 12.147442 0.849865 4.359020 1.824666 0.000000 0.000000 0.000000 152.731568 -63.881482 159.488155 11.253595 -2.329321 -0.862818 4.031711 -1.232727 -3.083063 0.470847 -2.000097 0.765287 0.000000 0.000000 0.000000 -3.428318 -2.876336 -2.088063 3.283393 17.721952 -4.307965 -15.557711 14.096173 -3.153275 0.000000 0.000000 0.000000 -3.341645 -3.320918 -1.934833 -0.873370 -8.923811 -5.672204 0.439431 0.131496 0.284757 -25.213298 -16.069852 -47.966892 -16.983081 -33.183255 -15.339645 0.000000 0.000000 0.000000 -4.887386 -3.524195 -2.175073 -5.803563 18.630634 3.487112 0.863843 -3.098552 -0.483138 -10.739940 -11.311166 61.127905 14.489784 37.338892 -4.598742 0.000000 0.000000 0.000000 
21.756973 89.847076 6.525814 0.000000 0.000000 0.000000 158.227903 -60.458772 165.143783 -64.556407 39.033203 54.660600 42.639898 -13.093342 -1.717624 12.075142 4.924853 2.015191 0.765372 6.489101 -17.657501 0.000000 0.000000 0.000000 159.970311 -58.316579 168.279879 -52.021613 -14.608695 -29.232349 42.632548 -1.554029 -1.444054 -17.872821 -0.225978 11.923392 1.938572 4.488581 2.038365 0.000000 0.000000 0.000000 153.102679 -61.903357 159.915424 11.602167 -2.195413 -0.884936 3.451617 -0.401217 -3.338546 0.528425 -2.319856 0.786766 0.000000 0.000000 0.000000 -4.125934 -1.956023 -2.290373 2.875892 19.048957 -4.929990 -15.586244 15.184506 -2.985397 0.000000 0.000000 0.000000 -3.972352 -2.350506 -2.162455 -0.782500 -8.732665 -5.500830 0.985684 0.107476 0.059534 -25.605163 -14.770347 -48.439702 -18.301372 -35.502162 -15.794592 0.000000 0.000000 0.000000 -5.417200 -2.541204 -2.419548 -5.775582 18.512500 3.230923 0.853443 -3.194431 -0.711482 -9.819585 -11.474106 61.046161 15.879563 37.279828 -5.451705 0.000000 0.000000 0.000000 
20.964952 89.813148 5.890457 0.000000 0.000000 0.000000 158.480333 -59.160892 165.105534 -67.921703 37.178250 55.819106 43.143450 -15.439842 -1.082941 14.151997 3.145996 3.037284 1.135226 5.081265 -16.060550 0.000000 0.000000 0.000000 160.025772 -56.579037 168.120776 -51.388024 -13.013895 -28.571994 43.432299 -0.954675 -1.371878 -20.208529 0.511563 11.702997 3.393655 4.538952 2.211046 0.000000 0.000000 0.000000 153.534593 -60.119469 160.236593 11.995835 -2.071961 -0.738442 2.914741 0.357350 -3.623769 0.471265 -2.507639 1.023829 0.000000 0.000000 0.000000 -4.753510 -1.112466 -2.522746 2.628256 20.123412 -5.383093 -15.419273 15.999906 -2.688641 0.000000 0.000000 0.000000 -4.580369 -1.451212 -2.419313 -0.749185 -8.668213 -5.354459 1.711591 0.182898 -0.068083 -25.805469 -12.577689 -48.879634 -19.526652 -37.441314 -16.214668 0.000000 0.000000 0.000000 -5.903683 -1.647463 -2.711293 -5.687702 18.380140 2.987823 0.742094 -3.424449 -0.890623 -8.668060 -11.509505 60.712636 16.691236 37.070579 -5.930917 0.000000 0.000000 0.000000 
19.989250 89.739883 5.133717 0.000000 0.000000 0.000000 158.996449 -57.773702 165.283761 -70.490742 35.031473 56.234296 43.874823 -17.640572 -0.601888 15.743772 1.495603 2.794873 1.511036 3.123438 -12.765869 0.000000 0.000000 0.000000 160.284527 -54.930362 168.128522 -50.542386 -11.261846 -27.915880 43.934662 -0.276973 -1.378290 -21.931012 1.153056 11.836392 4.358522 4.521747 2.242988 0.000000 0.000000 0.000000 154.168093 -58.370517 160.595506 12.410583 -1.926313 -0.468262 2.414657 1.081233 -3.911613 0.392129 -2.712780 1.240894 0.000000 0.000000 0.000000 -5.286534 -0.324075 -2.756586 2.554493 20.899877 -5.769511 -15.123642 16.478615 -2.268751 0.000000 0.000000 0.000000 -5.170992 -0.600744 -2.682405 -0.757795 -8.705237 -5.306800 2.572390 0.172212 -0.124676 -25.657781 -10.017669 -49.151107 -20.533842 -38.944519 -16.519005 0.000000 0.000000 0.000000 -6.372786 -0.827498 -3.010706 -5.546671 18.229138 2.834296 0.497342 -3.708630 -0.938187 -7.244245 -11.477745 60.213110 16.829567 36.439544 -5.973017 0.000000 0.000000 0.000000 
